<svg id="Layer_2" data-name="Layer 2" xmlns="http://www.w3.org/2000/svg" xmlns:xlink="http://www.w3.org/1999/xlink" viewBox="0 0 400 300" width="406" height="306" class="illustration styles_illustrationTablet__1DWOa"><defs><linearGradient id="linear-gradient" x1="233.63" y1="207.7" x2="255.1" y2="170.35" gradientUnits="userSpaceOnUse"><stop offset="0" stop-opacity="0"></stop><stop offset="0.99" stop-color="#006837"></stop></linearGradient><linearGradient id="linear-gradient-2" x1="230.99" y1="174.15" x2="244.88" y2="157.54" gradientUnits="userSpaceOnUse"><stop offset="0" stop-opacity="0"></stop><stop offset="0.99" stop-color="#1a1a1a"></stop></linearGradient><linearGradient id="linear-gradient-3" x1="150.01" y1="219.91" x2="159.35" y2="203.67" xlink:href="#linear-gradient"></linearGradient></defs><title>OK</title><polyline points="297.29 63.19 300.43 62.46 335.19 82.48 334.62 150.94 333.32 151.67" fill="#dd654a"></polyline><polygon points="297.29 63.19 296.89 130.74 333.32 151.67 333.32 83.55 297.29 63.19" fill="#f8997c"></polygon><polygon points="298.57 66.84 298.57 129.79 331.66 148.11 331.66 85.55 298.57 66.84" fill="#fdf2d6"></polygon><polyline points="312.93 79.98 312.93 96.05 302.31 90.96 302.31 77.38" fill="#f8997c"></polyline><path d="M301.51,73.49,312.92,80s.59,10.71-2.46,13.75L300.08,88.6S303.66,80.66,301.51,73.49Z" fill="#a1c3fc"></path><polyline points="327.97 88.5 327.97 104.57 317.36 99.48 317.36 85.9" fill="#f8997c"></polyline><path d="M316.56,82,328,88.5s.59,10.71-2.46,13.75l-10.38-5.13S318.71,89.18,316.56,82Z" fill="#a1c3fc"></path><polyline points="312.93 101.5 312.93 117.57 302.31 112.48 302.31 98.9" fill="#f8997c"></polyline><path d="M301.51,95l11.41,6.48s.59,10.71-2.46,13.75l-10.38-5.13S303.66,102.18,301.51,95Z" fill="#a1c3fc"></path><polyline points="327.97 110.02 327.97 126.1 317.36 121 317.36 107.42" fill="#f8997c"></polyline><path d="M316.56,103.54,328,110s.59,10.71-2.46,13.75l-10.38-5.13S318.71,110.7,316.56,103.54Z" fill="#a1c3fc"></path><polyline points="317.23 126.69 317.23 135.92 311.13 133 311.13 125.19" fill="#f8997c"></polyline><path d="M310.67,123l6.56,3.72s.34,6.15-1.41,7.9l-6-2.95S311.91,127.08,310.67,123Z" fill="#a1c3fc"></path><polyline points="326.34 131.83 326.34 141.07 320.24 138.14 320.24 130.34" fill="#f8997c"></polyline><path d="M319.78,128.11l6.56,3.72s.34,6.15-1.41,7.9l-6-2.95S321,132.22,319.78,128.11Z" fill="#a1c3fc"></path><polyline points="308.09 121.77 308.09 131 301.99 128.08 301.99 120.27" fill="#f8997c"></polyline><path d="M301.53,118l6.56,3.72s.34,6.15-1.41,7.9l-6-2.95S302.77,122.16,301.53,118Z" fill="#a1c3fc"></path><path d="M207.87,282.51l134.87-75.69a6.44,6.44,0,0,0,.24-11.1l-130.74-81a6.44,6.44,0,0,0-6.63-.1L62.95,197.42a6.44,6.44,0,0,0,0,11.15l127.21,73.82A17.87,17.87,0,0,0,207.87,282.51Z" fill="#f8997c"></path><polyline points="310.77 193.69 310.77 197.49 308.85 199.84" fill="#adcee1"></polyline><path d="M234.39,147.41l74.2,46a4.6,4.6,0,0,1-.16,7.91L195.84,265a10.31,10.31,0,0,1-10.3-.09L111.67,221.5c-5.37-4.41-5-12.71,0-13.06l111.95-61.2A10.47,10.47,0,0,1,234.39,147.41Z" fill="#88d3d8"></path><path d="M234.39,144.24l74.2,46a4.6,4.6,0,0,1-.16,7.91l-112.6,63.69a10.31,10.31,0,0,1-10.3-.09l-73.87-43.42a5.72,5.72,0,0,1,0-9.89l111.95-64.37A10.47,10.47,0,0,1,234.39,144.24Z" fill="#fff"></path><path d="M239,154.78l27.13,16.9a3.27,3.27,0,0,1-.11,5.62l-97.38,55.51a9.58,9.58,0,0,1-9.57,0c-6.26-3.65-17-10.22-23.63-14.26a4,4,0,0,1,.08-6.84c19.7-11.45,84-48.82,98-57A5.3,5.3,0,0,1,239,154.78Z" fill="#68e1fd"></path><path d="M237.49,200.66l-34,19.13a3.4,3.4,0,0,0-.05,5.9l20,11.71a4.52,4.52,0,0,0,4.52,0l34.81-19.85a2.84,2.84,0,0,0,0-4.94l-20.81-12A4.52,4.52,0,0,0,237.49,200.66Z" fill="#68e1fd"></path><path d="M239,154.78l27.13,16.9a3.27,3.27,0,0,1-.11,5.62l-97.38,55.51a9.58,9.58,0,0,1-9.57,0c-6.26-3.65-17-10.22-23.63-14.26a4,4,0,0,1,.08-6.84c19.7-11.45,84-48.82,98-57A5.3,5.3,0,0,1,239,154.78Z" fill="#053855" opacity="0.1"></path><path d="M237.49,200.66l-34,19.13a3.4,3.4,0,0,0-.05,5.9l20,11.71a4.52,4.52,0,0,0,4.52,0l34.81-19.85a2.84,2.84,0,0,0,0-4.94l-20.81-12A4.52,4.52,0,0,0,237.49,200.66Z" fill="#053855" opacity="0.1"></path><polyline points="292.58 192.74 241.07 224.15 191.02 194.26 239.96 164.14" opacity="0.32" fill="url(#linear-gradient)"></polyline><polyline points="272.49 176.47 272.49 199.77 274.21 199.77 274.58 175.87" fill="gray"></polyline><polyline points="282.3 167.51 285.75 192.84 284.02 192.84 280.41 168.45" fill="gray"></polyline><path d="M247.46,185.22s-1.61,5.27-2,5.81-5.63,4-5.54,5.09,2.08,1.52,3.32,1.43,8.38-3.07,8.83-3.95.45-8.38.45-8.38Z" fill="#5c2d1d"></path><path d="M255.93,191.39s-1.61,5.27-2,5.81-5.63,4-5.54,5.09,2.08,1.52,3.32,1.43,8.38-3.07,8.83-3.95.45-8.38.45-8.38Z" fill="#5c2d1d"></path><path d="M283.23,143.42c-.46,1.28-3,20.71-3,20.71l-2.6-.87L281,143.32" fill="gray"></path><polyline points="282.3 167.51 282.34 164.38 279.57 165.33 280.41 168.45" fill="#a9cbf8"></polyline><path d="M276,162.66s7,2.67,6.26,5.3-6.25,9.07-9.81,8.51-7.9-3.65-7.9-3.65" fill="#4a42a4"></path><path d="M276,159.46s7,2.67,6.26,5.3-6.25,9.07-9.81,8.51-7.9-3.65-7.9-3.65" fill="#a6aced"></path><path d="M278.79,135.06s6.72,1.68,7.4,5.55.88,11-8.67,8.23-5-9.94-5-9.94" fill="#a6aced"></path><path d="M269.82,143.32s2.37,10,.61,15.31-11.76,9.62-11.76,9.62l-4.22,21.47A13.6,13.6,0,0,1,244,188.48s1.17-18.94,2.94-23.75,15.53-14.25,15.53-14.25" fill="#895851"></path><path d="M270.22,156s-13.76,9.44-15.53,14.25S251.75,194,251.75,194a13.6,13.6,0,0,0,10.41,1.23l4.22-21.47s7.16-2,8.91-7.38,1-13.45,1-13.45" fill="#895851"></path><path d="M275.69,156.2c2.35-5.71,3.36-20.55,1.91-22.34-3-3.71-9.36-3.25-9.36-3.25s-3.69-2.21-6.78.4c-2.3,1.95-.66,13.89,0,21.48C265.47,156.2,269.92,157.24,275.69,156.2Z" fill="#8cc63f"></path><path d="M265.83,157.91c-2.48,2.47-5.13,4.85-7.43,7.49-2,2.29-2.79,5.19-3.57,8.07a141,141,0,0,0-3.42,20.5c0,.42.61.41.65,0a144.08,144.08,0,0,1,3.24-19.73c.83-3.17,1.65-6.32,3.92-8.78s4.71-4.73,7.07-7.09A.33.33,0,0,0,265.83,157.91Z" fill="#5c2d1d"></path><path d="M293,174.28l1.28-.7-58.73-33.64-38.2,21.67.51.3v28.6a.29.29,0,0,0,.57,0V162.24l56.5,33,.14-.08v20.59a.29.29,0,0,0,.57,0V194.86l37-20.35v18.23a.29.29,0,0,0,.57,0v-18.2A.26.26,0,0,0,293,174.28Z" fill="#dd654a"></path><path d="M293,174.28l1.28-.7-58.73-33.64-38.2,21.67.51.3v28.6a.29.29,0,0,0,.57,0V162.24l56.5,33,.14-.08v20.59a.29.29,0,0,0,.57,0V194.86l37-20.35v18.23a.29.29,0,0,0,.57,0v-18.2A.26.26,0,0,0,293,174.28Z" fill="#dd654a"></path><path d="M234.06,160.55l-18.45,10.28c3.09,1.95,15.49,8.62,18.47,10.72l19.07-12.2L250,161.71Z" opacity="0.32" fill="url(#linear-gradient-2)"></path><polyline points="249.3 171.59 262.74 163.76 245.23 153.7 231.5 160.76" fill="#b3b3b3"></polyline><path d="M245.83,156.15s3.53,15.64,3.48,15.44-17.4-9.52-17.52-9.85-4.59-16.2-4.59-16.2Z" fill="#fff"></path><polygon points="240.75 153.26 244.37 151.08 248.68 154.67 245.44 156.03 240.75 153.26" fill="#ffe0ce"></polygon><path d="M242.75,150.78s4.79,1.69,4.39,6.13c0,0,7.47-3.11,9.13-5.09s5.18-6.27,5.18-6.27V131s-9,14-11,15.73C248.89,148.1,242.75,150.78,242.75,150.78Z" fill="#8cc63f"></path><path d="M267.48,128.62c0,1.22,0,2.44,0,3.66.22.56.53.95,1,.9,1.46-.16,3.19-2.33,3.19-2.33l.26-3.4Z" fill="#f9c7af"></path><path d="M274.57,120.18c-.91-2-2.7-2.33-4.55-2a4.06,4.06,0,0,0-1.4-.64A4.39,4.39,0,0,0,264.2,119a3,3,0,0,0-1.49.19c-1.39.59-1.56,2.07-1.24,3.37,0,.05,0,.1,0,.15a4.12,4.12,0,0,0,2.39,3.27l7.22,3.6a5.25,5.25,0,0,0,1.92-1.8,2.78,2.78,0,0,0,.3-.95l.14-.15A6.4,6.4,0,0,0,274.57,120.18Z" fill="#895851"></path><path d="M263.74,124.15c.18.77,1.48,8.09,4.78,7.47s3.51-5.49,3.51-5.49-3-.81-3.23-1.93-.12-1.61-1.58-1.91S263.43,122.87,263.74,124.15Z" fill="#ffe0ce"></path><polygon points="260.86 146.27 260.38 139.12 258.23 149.47 260.86 146.27" fill="#6d9928"></polygon><path d="M261.1,158.46a2.4,2.4,0,0,0-.83.25c-.78.38-1.65.63-2.42,1a8,8,0,0,0-3,3.19c-.16.34-.82,1.6-.48,1.95s1.13,0,1.13,0,0,.72.21.88,1-.42,1-.42.34.88.82.67,1.32-1.46,1.32-1.46-.09,1,.33,1,2.19-2.45,2.19-2.45l3.76-2s-1.11-1.2-1.22-1.31a5.69,5.69,0,0,0-1.76-1.19A2.19,2.19,0,0,0,261.1,158.46Z" fill="#ffe0ce"></path><path d="M260.46,161.63a8.55,8.55,0,0,0-1.87,3.2c0,.15.18.21.23.06a8.26,8.26,0,0,1,1.81-3.09C260.73,161.69,260.57,161.52,260.46,161.63Z" fill="#5c2d1d"></path><path d="M259.36,160.9a9.24,9.24,0,0,0-2.77,4.62.12.12,0,0,0,.23.06,9,9,0,0,1,2.71-4.51C259.64,161,259.47,160.79,259.36,160.9Z" fill="#5c2d1d"></path><path d="M258.24,160.64a9.69,9.69,0,0,0-2.89,4.3c0,.15.18.21.23.06a9.46,9.46,0,0,1,2.83-4.2C258.53,160.71,258.36,160.54,258.24,160.64Z" fill="#5c2d1d"></path><path d="M277.82,146.08s-1.38,8.8-3.23,10.83-10,5.64-10,5.64-2-3.59-4.2-4.43c0,0,8.3-4.67,8.51-5.55" fill="#8cc63f"></path><path d="M271,140.18c-.14,1.9-.33,3.79-.61,5.67a27.27,27.27,0,0,1-.92,5c-.61,1.73-2.92,2.76-4.39,3.71s-3.12,2-4.69,3c-.36.22,0,.78.33.56q2.76-1.68,5.47-3.46c1.22-.8,3.08-1.63,3.73-3a20.45,20.45,0,0,0,1.06-5.25c.31-2,.53-4.09.68-6.15C271.67,139.76,271,139.77,271,140.18Z" fill="#6d9928"></path><path d="M99.72,101.46a3.93,3.93,0,0,0-2,3.43v96.61c-.14,2,2.09,3.79,3.9,2.76l39.56-22.52c1.59-.91,74-41.65,74-43.48L219.17,37a1.9,1.9,0,0,0-2.83-1.73C198.68,45.29,107.75,96.8,99.72,101.46Z" fill="#68e1fd"></path><polygon points="107.57 110.41 107.57 191.51 116.3 185.95 116.3 105.37 107.57 110.41" fill="#fff" opacity="0.6"></polygon><path d="M119.43,92.89l-18.08,10.6a1.15,1.15,0,0,0-.57,1V201a.78.78,0,0,0,1.17.67l113.38-66a5.18,5.18,0,0,1-2.13,4.14c-2.17,1.38-111.54,64.36-111.54,64.36s-3,1.37-3.9-2.24V104.89a4,4,0,0,1,1.64-3.22c1.75-1.27,114.35-66.86,114.35-66.86s4.1-1.5,5.46,1L131,86.22" fill="#124577"></path><path d="M222.6,15.22c-6.32,3.74-22,13-26.63,15.71a2.61,2.61,0,0,0-1.3,2.28V97.41a1.86,1.86,0,0,0,2.59,1.83l26.29-15a3,3,0,0,0,1.73-2.68V16.75A1.78,1.78,0,0,0,222.6,15.22Z" fill="#ffa513"></path><path d="M164.14,115.49l1.35,30.86s19.45-5.44,20.78-32.85l-.88-5.6Z" fill="#cee831"></path><path d="M164.14,115.49l5.28-29s14,.77,14.86,23.27Z" fill="#ffa513"></path><path d="M160.83,152a17.28,17.28,0,0,1-3-.27c-6.68-1.19-12.17-6.18-15.46-14-3.1-7.4-3.89-16.6-2.23-25.88C143.65,91.81,157,78,170.5,80.45c6.68,1.19,12.17,6.18,15.46,14,3.1,7.41,3.89,16.6,2.23,25.88h0c-1.66,9.28-5.58,17.63-11,23.51C172.22,149.18,166.52,152,160.83,152Zm6.69-65.62c-9.19,0-18.69,11.52-21.36,26.51C144.7,121,145.36,129,148,135.29c2.45,5.86,6.31,9.54,10.85,10.35s9.44-1.3,13.77-6c4.67-5,8-12.26,9.49-20.39h0c1.45-8.13.79-16.09-1.85-22.41C177.82,91,174,87.34,169.41,86.53A10.75,10.75,0,0,0,167.52,86.36Z" fill="#f2f2f2"></path><line x1="199.47" y1="37.02" x2="220.39" y2="25.09" fill="#f2f2f2" stroke="#f2f2f2" stroke-miterlimit="10"></line><line x1="199.47" y1="41.79" x2="220.39" y2="29.85" fill="#f2f2f2" stroke="#f2f2f2" stroke-miterlimit="10"></line><line x1="198.96" y1="47.76" x2="219.88" y2="35.82" fill="#f2f2f2" stroke="#f2f2f2" stroke-miterlimit="10"></line><line x1="198.96" y1="52.52" x2="219.88" y2="40.58" fill="#f2f2f2" stroke="#f2f2f2" stroke-miterlimit="10"></line><line x1="200.96" y1="73" x2="221.88" y2="61.07" fill="#f2f2f2" stroke="#f2f2f2" stroke-miterlimit="10"></line><line x1="200.96" y1="77.77" x2="221.88" y2="65.83" fill="#f2f2f2" stroke="#f2f2f2" stroke-miterlimit="10"></line><line x1="200.45" y1="83.73" x2="221.37" y2="71.8" fill="#f2f2f2" stroke="#f2f2f2" stroke-miterlimit="10"></line><line x1="200.45" y1="88.5" x2="221.37" y2="76.56" fill="#f2f2f2" stroke="#f2f2f2" stroke-miterlimit="10"></line><path d="M200.91,68.82s.33-9.16,4.2-8.46,3.85,2.31,6.3,0,1.25-8.72,5.14-8.72S219.88,59,219.88,59Z" fill="#fff"></path><polygon points="120.89 103.56 120.89 169.81 128.02 165.27 128.02 99.44 120.89 103.56" fill="#fff" opacity="0.6"></polygon><path d="M85.67,147.41,128,123a2.22,2.22,0,0,1,3.33,1.93v32.29a3.52,3.52,0,0,1-1.79,3.06L87.86,183.83a2.64,2.64,0,0,1-4-2.25v-31A3.69,3.69,0,0,1,85.67,147.41Z" fill="#cee831"></path><line x1="106.13" y1="148.44" x2="127.05" y2="136.5" fill="#f2f2f2" stroke="#fff" stroke-miterlimit="10"></line><line x1="106.13" y1="153.2" x2="127.05" y2="141.27" fill="#f2f2f2" stroke="#fff" stroke-miterlimit="10"></line><line x1="105.62" y1="159.17" x2="126.54" y2="147.23" fill="#f2f2f2" stroke="#fff" stroke-miterlimit="10"></line><line x1="105.62" y1="163.94" x2="126.54" y2="152" fill="#f2f2f2" stroke="#fff" stroke-miterlimit="10"></line><path d="M89.55,168.25v10.57l2.77-1.76V166.71C91.37,167.19,90.44,167.69,89.55,168.25Z" fill="#fff"></path><path d="M95.09,161.49v14.28L97.86,174V160.14Z" fill="#fff"></path><path d="M100.64,154.12v18.71l2.77-1.76V153C102.5,153.39,101.58,153.77,100.64,154.12Z" fill="#fff"></path><path d="M325.43,90.16a.55.55,0,0,0-.52-.06.52.52,0,0,0-.37.48v.05c-.22.19-.63.46-.73.55q-.51.43-1,.89c-.53.49-1,1-1.52,1.55l-1.17-2.23c-.3-.57-1.16-.07-.86.5l1.49,2.84a.5.5,0,0,0,.79.1,29.13,29.13,0,0,1,2.4-2.44c.48-.43,1.58-1,1.71-1.66A.52.52,0,0,0,325.43,90.16Z" fill="#fff"></path><path d="M309,103.9l-2.6,2.65c-.51.52-.36.52-.73-.12l-.85-1.47a.5.5,0,0,0-.86.5c.4.69,1.1,2.8,2.18,2.56.63-.14,1.1-.87,1.53-1.31l2.05-2.09C310.18,104.14,309.48,103.44,309,103.9Z" fill="#fff"></path><path d="M324.17,133.23c-.33.3-.67.57-1,.85-.19-.46-.38-.91-.55-1.37s-1.19-.34-1,.27.46,1.18.7,1.76c-.43.33-.87.66-1.32,1s0,1.22.5.86.82-.59,1.23-.9c.23.5.45,1,.7,1.49s1.15.07.86-.5-.51-1.07-.75-1.61c.44-.36.88-.72,1.31-1.1S324.64,132.8,324.17,133.23Z" fill="#fff"></path><polyline points="169.58 209.91 148.17 224.15 137.41 217.78 158.98 205.25" opacity="0.32" fill="url(#linear-gradient-3)"></polyline><path d="M119.77,147.66a14.89,14.89,0,0,1-3-.3,15.75,15.75,0,0,1-10.58-7.91,20.9,20.9,0,0,1,5.31-26.21A15.44,15.44,0,0,1,135,118,20.29,20.29,0,0,1,137,132C135.19,141.21,127.78,147.66,119.77,147.66Zm1.61-34.59a12.86,12.86,0,0,0-7.84,2.79,17.6,17.6,0,0,0-4.45,22,12.49,12.49,0,0,0,8.37,6.31c7.28,1.48,14.61-4.24,16.33-12.74a17,17,0,0,0-1.72-11.78,12.49,12.49,0,0,0-8.37-6.31A11.7,11.7,0,0,0,121.39,113.07Z" fill="#68e1fd"></path><path d="M136.05,135.45l26.52,13.08s1.07,3.47-1.24,4.35S132,139.19,132,139.19" fill="#68e1fd"></path><g opacity="0.25"><path d="M119.77,147.66a14.89,14.89,0,0,1-3-.3,15.75,15.75,0,0,1-10.58-7.91,20.9,20.9,0,0,1,5.31-26.21A15.44,15.44,0,0,1,135,118,20.29,20.29,0,0,1,137,132C135.19,141.21,127.78,147.66,119.77,147.66Zm1.61-34.59a12.86,12.86,0,0,0-7.84,2.79,17.6,17.6,0,0,0-4.45,22,12.49,12.49,0,0,0,8.37,6.31c7.28,1.48,14.61-4.24,16.33-12.74a17,17,0,0,0-1.72-11.78,12.49,12.49,0,0,0-8.37-6.31A11.7,11.7,0,0,0,121.39,113.07Z"></path><path d="M136.05,135.45l26.52,13.08s1.07,3.47-1.24,4.35S132,139.19,132,139.19"></path></g><path d="M150.52,143.13q-2.36-1.2-4.65-2.53a18.58,18.58,0,0,0-.9-1.71,2.38,2.38,0,0,0-2.44-1.3.82.82,0,0,0,.06,1.62l.13.15c-1.89.09-5.31.37-4.54,2.23a1.44,1.44,0,0,0-.19.18,1.2,1.2,0,0,0,.11,1.64,1.39,1.39,0,0,0,1.29.35,1.3,1.3,0,0,0,1.67.62l.47-.14a.73.73,0,0,0,.89.82l1.56-.3c3.55,1.13,5.32,1.54,6.65,2.45.55.38,0,.52,0,0a.74.74,0,0,0-.17-1.07l-.15-.11a.76.76,0,0,0,.13-1.1l-.19-.22A.85.85,0,0,0,150.52,143.13Z" fill="#ff7d09"></path><path d="M168.71,197.7l.86,12.22L168,211.24l-1.7-.44s.22-3.23-.38-3.94-1.61,2.8-2.19,2.78-7.5-1.87-7.6-2.72c-.13-1.13,1.42-2.42,4.36-1.71,3.18.77,3.73-2.81,4.24-6.24" fill="#f8997c"></path><path d="M163.74,200.14s3,1.28,8.2-2c0,0-1.79-16.2-1.64-19s3.27-22.94-.58-27.38S159,190,159.3,190.25" fill="#a1c3fc"></path><path d="M166.26,207.33l-.29-.47a1.71,1.71,0,0,0-1.68-.4c-.83.39-.71,3.29-.71,3.29l2.88-1.08A3.15,3.15,0,0,0,166.26,207.33Z" fill="#9e005d"></path><path d="M159.3,203.69l-.3,12.24-1.65,1.17-1.65-.6s.52-3.2,0-4-1.87,2.64-2.45,2.56-7.29-2.57-7.31-3.43c0-1.14,1.65-2.27,4.5-1.28,3.09,1.07,4-2.44,4.81-5.81" fill="#f8997c"></path><path d="M155.95,213l-.24-.5a1.71,1.71,0,0,0-1.64-.56c-.87.31-1,3.2-1,3.2l3-.8A3.15,3.15,0,0,0,155.95,213Z" fill="#9e005d"></path><path d="M158.3,156.51s-5.13,13.82-6.29,19.81-1.21,28.43-.79,29S156.62,207,160,207s2.9-26.53,2.9-26.53,9.15-23.19,6.7-25.73S158.3,156.51,158.3,156.51Z" fill="#a1c3fc"></path><path d="M158.09,156.77c4.65,1.47,10.56-.29,13.4-4.29-.54-6.54-1.66-17.35-3.34-19-2.43-2.34-7.69,1-9.59,4.26a64.21,64.21,0,0,0-2.83,7.7l-7.16-4.08-2.17,5.09s4.91,9.25,11.54,7.14Z" fill="#f8997c"></path><path d="M162.57,144.78a.27.27,0,0,0-.55,0,12.82,12.82,0,0,1-1.07,6.17,5.18,5.18,0,0,1-4.11,2.91c-.35,0-.35.56,0,.55a5.67,5.67,0,0,0,4.47-3C162.48,149.43,162.58,147,162.57,144.78Z" fill="#fff"></path><path d="M160.06,121.63c-.38.08-1,.68-1.89,2.82s1.27,4.86,2.21,5.43a11.62,11.62,0,0,1,2.32,2.8s3.47.84,5.81-3.41S165.7,120.4,160.06,121.63Z" fill="#ffb468"></path><path d="M159.08,124s-1.75,7.11.83,8.73,6.06-2.69,6.39-4.41S164.75,122.87,159.08,124Z" fill="#ff7d09"></path><path d="M159.08,124s-.43,4.64,2,5.66,2.45,2.48,2.45,2.48,4.4-2.35,4.86-4.43S162.45,122.14,159.08,124Z" fill="#ffb468"></path><path d="M167.16,129.58c-.88,7,.88,15.88-2,22.41-.18.4-.56,2.21-.86,2.21l7-3.83c2.82-1.74,4.86-2.87,3.86-7.29s-6.67-13.84-6.67-13.84Z" fill="#ffb468"></path><path d="M156.45,142a53.65,53.65,0,0,0-1,5.6c0,.35.5.35.55,0a52.29,52.29,0,0,1,1-5.45C157.07,141.79,156.54,141.64,156.45,142Z" fill="#fff"></path><path d="M166.34,132.73l-.66-1.41a31.16,31.16,0,0,1-4,1.72c-1.65.5-1.19,2.41-1.19,2.41S164.31,135.46,166.34,132.73Z" fill="#5fad00"></path></svg>